<svg enable-background="new 0 0 256 256" viewBox="0 0 256 256" xmlns="http://www.w3.org/2000/svg"><path d="m229.935 256h-203.87c-14.395 0-26.065-11.67-26.065-26.065v-203.87c0-14.395 11.67-26.065 26.065-26.065h203.87c14.395 0 26.065 11.67 26.065 26.065v203.87c0 14.395-11.67 26.065-26.065 26.065z" fill="#ffefe4"/><path d="m229.935 249h-203.87c-14.395 0-26.065-11.67-26.065-26.065v7c0 14.395 11.67 26.065 26.065 26.065h203.87c14.395 0 26.065-11.67 26.065-26.065v-7c0 14.395-11.67 26.065-26.065 26.065z" fill="#edd4c2"/><path d="m229.935 0h-203.87c-14.395 0-26.065 11.67-26.065 26.065v13.935h256v-13.935c0-14.395-11.67-26.065-26.065-26.065z" fill="#69ebfc"/><path d="m229.935 0h-203.87c-14.395 0-26.065 11.67-26.065 26.065v7c0-14.395 11.67-26.065 26.065-26.065h203.87c14.395 0 26.065 11.67 26.065 26.065v-7c0-14.395-11.67-26.065-26.065-26.065z" fill="#a1f1fc"/><circle cx="35" cy="20" fill="#ff8354" r="9"/><circle cx="68.5" cy="20" fill="#d476e2" r="9"/><circle cx="102" cy="20" fill="#6770e6" r="9"/><path d="m226.445 156.614h-196.89c-1.963 0-3.555-1.592-3.555-3.555v-90.077c0-1.963 1.592-3.555 3.555-3.555h196.89c1.963 0 3.555 1.592 3.555 3.555v90.077c0 1.963-1.592 3.555-3.555 3.555z" fill="#ff8354"/><path d="m82.907 170.609h-53.352c-1.963 0-3.555 1.592-3.555 3.555v40.728c0 1.963 1.592 3.555 3.555 3.555h53.352c1.963 0 3.555-1.592 3.555-3.555v-40.728c0-1.964-1.592-3.555-3.555-3.555z" fill="#69ebfc"/><path d="m154.643 170.609h-53.352c-1.963 0-3.555 1.592-3.555 3.555v40.728c0 1.963 1.592 3.555 3.555 3.555h53.352c1.963 0 3.555-1.592 3.555-3.555v-40.728c0-1.964-1.591-3.555-3.555-3.555z" fill="#d476e2"/><path d="m226.38 170.609h-53.352c-1.963 0-3.555 1.592-3.555 3.555v40.728c0 1.963 1.592 3.555 3.555 3.555h53.352c1.963 0 3.555-1.592 3.555-3.555v-40.728c0-1.964-1.592-3.555-3.555-3.555z" fill="#6770e6"/><g fill="#edd4c2"><path d="m79.798 236.573h-47.135c-2.206 0-3.995-1.788-3.995-3.995 0-2.206 1.788-3.995 3.995-3.995h47.135c2.206 0 3.995 1.788 3.995 3.995 0 2.207-1.789 3.995-3.995 3.995z"/><path d="m151.535 236.573h-47.135c-2.206 0-3.995-1.788-3.995-3.995 0-2.206 1.788-3.995 3.995-3.995h47.135c2.206 0 3.995 1.788 3.995 3.995 0 2.207-1.789 3.995-3.995 3.995z"/><path d="m223.272 236.573h-47.135c-2.206 0-3.995-1.788-3.995-3.995 0-2.206 1.788-3.995 3.995-3.995h47.135c2.206 0 3.995 1.788 3.995 3.995-.001 2.207-1.789 3.995-3.995 3.995z"/></g><path d="m147.243 103.836-29.655-17.121c-3.221-1.859-7.247.465-7.247 4.184v34.242c0 3.719 4.026 6.043 7.247 4.184l29.655-17.121c3.221-1.859 3.221-6.508 0-8.368z" fill="#ffefe4"/></svg>